<svg height="512" viewBox="0 0 60 60" width="512" xmlns="http://www.w3.org/2000/svg"><g id="Page-1" fill="none" fill-rule="evenodd"><g id="009---Poop" fill-rule="nonzero"><path id="Shape" d="m59 49c-.1443066 2.3441817-2.1550664 4.1315237-4.5 4-1.1670973.0101886-2.297809-.4058279-3.18-1.17-.827084-.7091709-1.308162-1.740573-1.32-2.83 0 2.209139-1.790861 4-4 4s-4-1.790861-4-4c0 2.209139-1.790861 4-4 4s-4-1.790861-4-4c0 2.209139-1.790861 4-4 4s-4-1.790861-4-4c0 2.209139-1.790861 4-4 4s-4-1.790861-4-4c0 2.209139-1.790861 4-4 4s-4-1.790861-4-4c-.01183799 1.089427-.49291602 2.1208291-1.32 2.83-.88219104.7641721-2.01290266 1.1801886-3.18 1.17-1.16709734.0101886-2.29780896-.4058279-3.18-1.17-.82708398-.7091709-1.30816201-1.740573-1.32-2.83 0-2.209139 1.790861-4 4-4h50c2.209139 0 4 1.790861 4 4z" fill="#60a917"/><path id="Shape" d="m55 45h-3c2.209139 0 4 1.790861 4 4-.0683288 1.774123-1.2847415 3.2966663-3 3.755.4844023.1584145.9903676.2410554 1.5.245 2.3449336.1315237 4.3556934-1.6558183 4.5-4 0-2.209139-1.790861-4-4-4z" fill="#549414"/><path id="Shape" d="m59 49v6c0 2.209139-1.790861 4-4 4h-50c-2.209139 0-4-1.790861-4-4v-6c.01183799 1.089427.49291602 2.1208291 1.32 2.83.88219104.7641721 2.01290266 1.1801886 3.18 1.17 1.16709734.0101886 2.29780896-.4058279 3.18-1.17.82708398-.7091709 1.30816201-1.740573 1.32-2.83 0 2.209139 1.790861 4 4 4s4-1.790861 4-4c0 2.209139 1.790861 4 4 4s4-1.790861 4-4c0 2.209139 1.790861 4 4 4s4-1.790861 4-4c0 2.209139 1.790861 4 4 4s4-1.790861 4-4c0 2.209139 1.790861 4 4 4s4-1.790861 4-4c.011838 1.089427.492916 2.1208291 1.32 2.83.882191.7641721 2.0129027 1.1801886 3.18 1.17 2.3449336.1315237 4.3556934-1.6558183 4.5-4z" fill="#825a2c"/><path id="Shape" d="m56 52.756v2.244c0 2.209139-1.790861 4-4 4h3c2.209139 0 4-1.790861 4-4v-6c-.0685377 1.774261-1.2847723 3.2969866-3 3.756z" fill="#624421"/><path id="Shape" d="m40 33c3.3137085 0 6-2.6862915 6-6s-2.6862915-6-6-6h-3.4c1.2041696-.0016593 2.3438167-.5445042 3.1039021-1.4784729.7600853-.9339687 1.0600958-2.1601293.8170979-3.3395271-.7951529-4.3766962-3.1033264-8.33467752-6.521-11.182 0 3-2 6-7 6s-8 2-8 6c0 2.209139 1.790861 4 4 4h-3c-3.3137085 0-6 2.6862915-6 6s2.6862915 6 6 6h-5c-3.3137085 0-6 2.6862915-6 6s2.6862915 6 6 6h30c3.3137085 0 6-2.6862915 6-6s-2.6862915-6-6-6z" fill="#a0522d"/><path id="Shape" d="m45 33h-3c3.3137085 0 6 2.6862915 6 6s-2.6862915 6-6 6h3c3.3137085 0 6-2.6862915 6-6s-2.6862915-6-6-6z" fill="#783e22"/><path id="Shape" d="m37 21c3.3137085 0 6 2.6862915 6 6s-2.6862915 6-6 6h3c3.3137085 0 6-2.6862915 6-6s-2.6862915-6-6-6z" fill="#783e22"/><path id="Shape" d="m37.521 16.182c.2429979 1.1793978-.0570126 2.4055584-.8170979 3.3395271-.7600854.9339687-1.8997325 1.4768136-3.1039021 1.4784729h3c1.2041696-.0016593 2.3438167-.5445042 3.1039021-1.4784729.7600853-.9339687 1.0600958-2.1601293.8170979-3.3395271-.7951529-4.3766962-3.1033264-8.33467752-6.521-11.182.0032353.8582664-.1728592 1.7077438-.517 2.494 2.0192934 2.5327211 3.4037794 5.5115261 4.038 8.688z" fill="#783e22"/><circle id="Oval" cx="8" cy="17" fill="#3f51b5" r="2"/><circle id="Oval" cx="55" cy="27" fill="#3f51b5" r="2"/><g fill="#000"><path id="Shape" d="m55 44h-5.111c2.0376263-1.9866736 2.6680905-5.0099921 1.5943438-7.6454923-1.0737467-2.6355001-3.6375075-4.3574381-6.4833438-4.3545077h-.1c1.9559611-1.9160925 2.615177-4.7967057 1.6872263-7.3727689-.9279506-2.5760632-3.2726886-4.3745908-6.0012263-4.6032311.8767517-1.1516463 1.2102559-2.6272378.914-4.044-.836237-4.6266114-3.2882619-8.80593354-6.919-11.793-.304703-.2175106-.705378-.24660841-1.0383103-.07540415-.3329323.17120427-.5423515.51403177-.5426897.88840415 0 1.173-.433 5-6 5-5.72 0-9 2.551-9 7-.0009979 1.1100986.3693107 2.18864 1.052 3.064-2.6468178.3629747-4.8562292 2.2008681-5.6950013 4.7373728-.8387722 2.5365048-.1606241 5.3292572 1.7480013 7.1986272h-.105c-2.8458363-.0029304-5.40959709 1.7190076-6.48334378 4.3545077-1.07374669 2.6355002-.44328251 5.6588187 1.59434378 7.6454923h-5.111c-2.76005315.0033061-4.99669388 2.2399468-5 5v6c.00330612 2.7600532 2.23994685 4.9966939 5 5h50c2.7600532-.0033061 4.9966939-2.2399468 5-5v-6c-.0033061-2.7600532-2.2399468-4.9966939-5-5zm-45-5c.0033061-2.7600532 2.2399468-4.9966939 5-5h8c.5522847 0 1-.4477153 1-1s-.4477153-1-1-1h-3c-2.7614237 0-5-2.2385763-5-5s2.2385763-5 5-5h11c.5522847 0 1-.4477153 1-1s-.4477153-1-1-1h-8c-1.6568542 0-3-1.3431458-3-3 0-4.132 3.807-5 7-5 4.7 0 6.986-2.389 7.724-4.992 2.4513698 2.61302375 4.1203016 5.8614988 4.817 9.376.18302.8849494-.0416547 1.8052883-.6118569 2.5063599-.5702023.7010715-1.4254669 1.1085329-2.3291431 1.1096401h-1.6c-.5522847 0-1 .4477153-1 1s.4477153 1 1 1h5c2.7614237 0 5 2.2385763 5 5s-2.2385763 5-5 5h-13c-.5522847 0-1 .4477153-1 1s.4477153 1 1 1h18c2.7614237 0 5 2.2385763 5 5s-2.2385763 5-5 5h-30c-2.7600532-.0033061-4.9966939-2.2399468-5-5zm45 19h-50c-1.65685425 0-3-1.3431458-3-3v-2.146c1.01189356.7507235 2.24005267 1.1528579 3.5 1.146 1.72040951.0205775 3.35748645-.7394939 4.452-2.067.9318356 1.2858914 2.4191069 2.0526683 4.0070803 2.0658882 1.5879734.01322 3.0878046-.7286891 4.0409197-1.9988882.9442719 1.2590292 2.4262135 2 4 2s3.0557281-.7409708 4-2c.9442719 1.2590292 2.4262135 2 4 2s3.0557281-.7409708 4-2c.9442719 1.2590292 2.4262135 2 4 2s3.0557281-.7409708 4-2c.9526425 1.2705446 2.4521911 2.0130058 4.0401621 2.0003778 1.5879709-.012628 3.0755221-.7788435 4.0078379-2.0643778 1.0951005 1.3263857 2.7320902 2.0853135 4.452 2.064 1.2599473.0068579 2.4881064-.3952765 3.5-1.146v2.146c0 .7956495-.3160705 1.5587112-.8786797 2.1213203-.5626091.5626092-1.3256708.8786797-2.1213203.8786797zm-.5-6c-1.7906119.1249538-3.3496255-1.2113435-3.5-3 0-.5522847-.4477153-1-1-1s-1 .4477153-1 1c0 1.6568542-1.3431458 3-3 3s-3-1.3431458-3-3c0-.5522847-.4477153-1-1-1s-1 .4477153-1 1c0 1.6568542-1.3431458 3-3 3s-3-1.3431458-3-3c0-.5522847-.4477153-1-1-1s-1 .4477153-1 1c0 1.6568542-1.3431458 3-3 3s-3-1.3431458-3-3c0-.5522847-.4477153-1-1-1s-1 .4477153-1 1c0 1.6568542-1.3431458 2.9999999-3 2.9999999s-3-1.3431457-3-2.9999999c0-.5522847-.4477153-1-1-1s-1 .4477153-1 1c0 1.6568542-1.3431458 3-3 3s-3-1.3431458-3-3c0-.5522847-.4477153-1-1-1-.55228475 0-1 .4477153-1 1-.15037454 1.7886565-1.70938809 3.1249538-3.5 3-1.79061191.1249538-3.34962546-1.2113435-3.5-3 0-1.6568542 1.34314575-3 3-3h50c1.6568542 0 3 1.3431458 3 3-.1503745 1.7886565-1.7093881 3.1249538-3.5 3z"/><path id="Shape" d="m21.293 7.707c.3904999.39038194 1.0235001.39038194 1.414 0 .8891105-1.02489911 1.351816-2.35146454 1.293-3.707.058816-1.35553546-.4038895-2.68210089-1.293-3.707-.3856879-.38685669-1.0115587-.38909195-1.4-.005-.3905686.38336758-.4038849 1.00834435-.03 1.408.5105201.65591242.7672387 1.47400313.723 2.304.0427308.82761437-.2115432 1.64327718-.717 2.3-.3829838.39242096-.3785229 1.02006239.01 1.407z"/><path id="Shape" d="m15.99 11c.4053496.0060675.7742558-.2331902.9340281-.605773.1597722-.3725827.0787938-.80476161-.2050281-1.094227-.5081698-.65540655-.7633989-1.47185565-.719-2.3-.0438054-.82400148.2067849-1.63673621.707-2.293.2599566-.25107447.3642126-.62287789.2726972-.97250732-.0915155-.34962944-.3645604-.6226744-.7141899-.71418984-.3496294-.09151544-.7214328.01274058-.9725073.27269716-.8891105 1.02489911-1.351816 2.35146454-1.293 3.707-.058816 1.35553546.4038895 2.68210089 1.293 3.707.1839794.1866844.4348955.2921628.697.293z"/><path id="Shape" d="m44.99 11c.4053496.0060675.7742558-.2331902.9340281-.605773.1597722-.3725827.0787938-.80476161-.2050281-1.094227-.5081698-.65540655-.7633989-1.47185565-.719-2.3-.0438054-.82400148.2067849-1.63673621.707-2.293.2599566-.25107447.3642126-.62287789.2726972-.97250732-.0915155-.34962944-.3645604-.6226744-.7141899-.71418984-.3496294-.09151544-.7214328.01274058-.9725073.27269716-.8891105 1.02489911-1.351816 2.35146454-1.293 3.707-.058816 1.35553546.4038895 2.68210089 1.293 3.707.1839794.1866844.4348955.2921628.697.293z"/><path id="Shape" d="m48.293 19.707c.3904999.3903819 1.0235001.3903819 1.414 0 .8891105-1.0248991 1.351816-2.3514645 1.293-3.707.058816-1.3555355-.4038895-2.6821009-1.293-3.707-.3870661-.3854708-1.0129339-.3854708-1.4 0-.3905686.3833676-.4038849 1.0083443-.03 1.408.5093677.6545889.7660201 1.4706937.723 2.299.0427308.8276144-.2115432 1.6432772-.717 2.3-.3829838.392421-.3785229 1.0200624.01 1.407z"/><path id="Shape" d="m4 15c.51772596-.0015895 1.02628077.1366047 1.472.4-.80223359 1.2555179-.56147056 2.9095539.56539797 3.8842698 1.12686853.974716 2.79833553.974716 3.92520406 0 1.12686857-.9747159 1.36763157-2.6287519.56539797-3.8842698.4457192-.2633953.954274-.4015895 1.472-.4.5522847 0 1-.4477153 1-1s-.4477153-1-1-1c-1.1488323-.0056629-2.26195571.3989481-3.139 1.141-.27846663-.0892426-.56861344-.1367579-.861-.141-.29238656.0042421-.58253337.0517574-.861.141-.87704429-.7420519-1.99016769-1.1466629-3.139-1.141-.55228475 0-1 .4477153-1 1s.44771525 1 1 1zm5 2c0 .5522847-.44771525 1-1 1s-1-.4477153-1-1 .44771525-1 1-1 1 .4477153 1 1z"/><path id="Shape" d="m59 23c-1.1488323-.0056629-2.2619557.3989481-3.139 1.141-.5586147-.1879484-1.1633853-.1879484-1.722 0-.8770443-.7420519-1.9901677-1.1466629-3.139-1.141-.5522847 0-1 .4477153-1 1s.4477153 1 1 1c.517726-.0015895 1.0262808.1366047 1.472.4-.8022336 1.2555179-.5614706 2.9095539.565398 3.8842698 1.1268685.974716 2.7983355.974716 3.925204 0 1.1268686-.9747159 1.3676316-2.6287519.565398-3.8842698.4457192-.2633953.954274-.4015895 1.472-.4.5522847 0 1-.4477153 1-1s-.4477153-1-1-1zm-4 5c-.5522847 0-1-.4477153-1-1s.4477153-1 1-1 1 .4477153 1 1-.4477153 1-1 1z"/></g></g></g></svg>